<?xml version="1.0" encoding="UTF-8" standalone="no"?>
<!-- Uploaded to: SVG Repo, www.svgrepo.com, Generator: SVG Repo Mixer Tools -->

<svg
   width="55.129341"
   height="49.999996"
   viewBox="0 0 1.6538802 1.4999999"
   fill="none"
   version="1.1"
   id="svg4"
   sodipodi:docname="camera-add.svg"
   inkscape:version="1.3.2 (1:1.3.2+202311252150+091e20ef0f)"
   xmlns:inkscape="http://www.inkscape.org/namespaces/inkscape"
   xmlns:sodipodi="http://sodipodi.sourceforge.net/DTD/sodipodi-0.dtd"
   xmlns="http://www.w3.org/2000/svg"
   xmlns:svg="http://www.w3.org/2000/svg">
  <defs
     id="defs4" />
  <sodipodi:namedview
     id="namedview4"
     pagecolor="#ffffff"
     bordercolor="#000000"
     borderopacity="0.25"
     inkscape:showpageshadow="2"
     inkscape:pageopacity="0.0"
     inkscape:pagecheckerboard="0"
     inkscape:deskcolor="#d1d1d1"
     inkscape:zoom="5.7699913"
     inkscape:cx="49.566799"
     inkscape:cy="42.114448"
     inkscape:window-width="1850"
     inkscape:window-height="1016"
     inkscape:window-x="0"
     inkscape:window-y="0"
     inkscape:window-maximized="1"
     inkscape:current-layer="svg4" />
  <path
     d="M 1.0577029,0.82689939 H 0.59617757"
     stroke="#1c274c"
     stroke-width="0.115381"
     stroke-linecap="round"
     id="path1"
     style="stroke:#ffffff" />
  <path
     d="M 0.82694025,0.5961367 V 1.057662"
     stroke="#1c274c"
     stroke-width="0.115381"
     stroke-linecap="round"
     id="path2"
     style="stroke:#ffffff" />
  <path
     d="M 1.3653865,0.5961367 H 1.2884656"
     stroke="#1c274c"
     stroke-width="0.115381"
     stroke-linecap="round"
     id="path3"
     style="stroke:#ffffff" />
  <path
     d="m 0.05773128,0.85486783 c 0,-0.23570101 0,-0.35355845 0.05761529,-0.43821835 0.0249424,-0.0366497 0.056993,-0.0681181 0.0943219,-0.0926066 0.0554069,-0.036349 0.12477262,-0.0493409 0.23097499,-0.0539846 0.0506793,0 0.0943143,-0.0377051 0.1042532,-0.0864975 0.0149088,-0.0731879 0.0803608,-0.12587028 0.15637788,-0.12587028 h 0.25133133 c 0.0760132,0 0.14146513,0.05268236 0.15638013,0.12587028 0.00994,0.0487925 0.053568,0.0864975 0.104251,0.0864975 0.1062046,0.004644 0.1755641,0.0176357 0.2309779,0.0539846 0.037322,0.0244885 0.069375,0.0559569 0.09432,0.0926066 0.057614,0.0846599 0.057614,0.20251734 0.057614,0.43821835 0,0.23570867 0,0.35356687 -0.057614,0.43822597 -0.024945,0.036645 -0.056998,0.068113 -0.09432,0.092605 -0.086228,0.056568 -0.2062633,0.056568 -0.44634108,0.056568 H 0.6560051 c -0.24007243,0 -0.36010826,0 -0.44633658,-0.056568 -0.0373289,-0.024492 -0.0693796,-0.05596 -0.0943219,-0.092605 -0.01627338,-0.023915 -0.02794997,-0.050476 -0.03632897,-0.08159"
     stroke="#1c274c"
     stroke-width="0.115381"
     stroke-linecap="round"
     id="path4"
     style="stroke:#ffffff" />
</svg>
