<?xml version="1.0" encoding="UTF-8" standalone="no"?>
<!-- Uploaded to: SVG Repo, www.svgrepo.com, Generator: SVG Repo Mixer Tools -->

<svg
   width="500"
   height="300"
   viewBox="0 0 15 9.0000001"
   fill="none"
   version="1.1"
   id="svg4"
   sodipodi:docname="default_image.svg"
   inkscape:version="1.3.2 (1:1.3.2+202311252150+091e20ef0f)"
   xml:space="preserve"
   inkscape:export-filename="default_image.png"
   inkscape:export-xdpi="256"
   inkscape:export-ydpi="256"
   xmlns:inkscape="http://www.inkscape.org/namespaces/inkscape"
   xmlns:sodipodi="http://sodipodi.sourceforge.net/DTD/sodipodi-0.dtd"
   xmlns="http://www.w3.org/2000/svg"
   xmlns:svg="http://www.w3.org/2000/svg"><defs
     id="defs4" /><sodipodi:namedview
     id="namedview4"
     pagecolor="#ffffff"
     bordercolor="#000000"
     borderopacity="0.25"
     inkscape:showpageshadow="2"
     inkscape:pageopacity="0.0"
     inkscape:pagecheckerboard="0"
     inkscape:deskcolor="#d1d1d1"
     inkscape:zoom="1.4424978"
     inkscape:cx="301.56025"
     inkscape:cy="205.19962"
     inkscape:window-width="1654"
     inkscape:window-height="904"
     inkscape:window-x="26"
     inkscape:window-y="23"
     inkscape:window-maximized="0"
     inkscape:current-layer="svg4" /><path
     d="M 7.7307622,4.4999999 H 7.2692372"
     stroke="#1c274c"
     stroke-width="0.115381"
     stroke-linecap="round"
     id="path1"
     style="fill:none;stroke:#dc2626;stroke-opacity:1" /><path
     d="M 7.5000002,4.2692373 V 4.7307626"
     stroke="#1c274c"
     stroke-width="0.115381"
     stroke-linecap="round"
     id="path2"
     style="fill:none;stroke:#dc2626;stroke-opacity:1" /><path
     d="m 7.5384602,4.4999999 h -0.07692"
     stroke="#1c274c"
     stroke-width="0.115381"
     stroke-linecap="round"
     id="path3"
     style="fill:none;stroke:#dc2626;stroke-opacity:1" /><path
     d="m 6.7307912,4.6048679 c 0,-0.235701 0,-0.3535585 0.05762,-0.4382184 0.02494,-0.03665 0.05699,-0.068118 0.09432,-0.092607 0.05541,-0.036349 0.124773,-0.049341 0.230975,-0.053985 0.05068,0 0.09431,-0.037705 0.104253,-0.086498 0.01491,-0.073188 0.08036,-0.1258703 0.156378,-0.1258703 h 0.251332 c 0.07601,0 0.141465,0.052682 0.15638,0.1258703 0.0099,0.048793 0.05357,0.086498 0.104251,0.086498 0.106204,0.00464 0.175564,0.017636 0.230978,0.053985 0.03732,0.024489 0.06938,0.055957 0.09432,0.092607 0.05761,0.08466 0.05761,0.2025174 0.05761,0.4382184 0,0.2357086 0,0.3535668 -0.05761,0.4382259 -0.02494,0.036645 -0.057,0.068113 -0.09432,0.092605 -0.08623,0.056568 -0.206264,0.056568 -0.446341,0.056568 h -0.341869 c -0.240073,0 -0.360108,0 -0.446337,-0.056568 -0.03733,-0.024492 -0.06938,-0.05596 -0.09432,-0.092605 -0.01627,-0.023915 -0.02795,-0.050476 -0.03633,-0.08159"
     stroke="#1c274c"
     stroke-width="0.115381"
     stroke-linecap="round"
     id="path4"
     style="fill:none;stroke:#dc2626;stroke-opacity:1" /><rect
     style="fill:none;stroke:none;stroke-width:0.0182857"
     id="rect1"
     width="14.981714"
     height="8.9817142"
     x="0.0091428496"
     y="0.0091428496"
     ry="1.0276891" /><g
     style="fill:#dc2626;fill-opacity:1"
     id="g3"
     transform="matrix(0.00597835,0.00302189,-0.0030475,0.00592811,9.696039,2.8751084)"><g
       id="g2"
       style="fill:#dc2626;fill-opacity:1">
	<g
   id="g1"
   style="fill:#dc2626;fill-opacity:1">
		<path
   d="M 560.684,363.805 495.622,166.821 c -1.591,-4.813 -5.086,-5.248 -7.806,-0.97 l -38.033,59.783 c -2.721,4.278 -5.03,7.705 -5.159,7.653 -0.076,-0.03 -0.153,-0.061 -0.232,-0.092 -10.352,-4.382 -21.447,-7.567 -33.636,-11.484 -6.019,-2.069 -12.562,-3.498 -19.195,-5.227 -3.32,-0.833 -6.698,-1.68 -10.129,-2.54 -1.71,-0.425 -3.433,-0.854 -5.168,-1.285 -1.763,-0.339 -3.537,-0.679 -5.324,-1.022 -7.114,-1.334 -14.422,-2.708 -21.895,-4.109 -7.5,-1.154 -15.208,-2.004 -22.968,-3.014 -7.73,-1.163 -15.735,-1.414 -23.725,-2.004 -3.993,-0.254 -8.008,-0.511 -12.044,-0.771 -4.046,-0.031 -8.112,-0.061 -12.197,-0.095 -8.149,-0.019 -16.294,-0.26 -24.501,0.358 -4.082,0.217 -8.173,0.435 -12.271,0.655 -4.082,0.196 -8.158,0.422 -12.231,0.958 -8.14,0.949 -16.239,1.714 -24.248,2.846 -7.956,1.371 -15.878,2.735 -23.743,4.088 -7.791,1.643 -15.45,3.534 -22.986,5.266 -3.779,0.805 -7.482,1.879 -11.145,2.987 -3.657,1.077 -7.283,2.148 -10.885,3.21 -3.577,1.111 -7.16,2.007 -10.618,3.265 -3.455,1.239 -6.875,2.466 -10.26,3.681 -6.741,2.457 -13.357,4.651 -19.575,7.479 -6.227,2.666 -12.286,5.257 -18.146,7.763 -5.692,2.828 -11.19,5.56 -16.469,8.186 -2.708,1.359 -5.361,2.69 -7.953,3.99 -2.378,1.396 -4.697,2.76 -6.961,4.091 -4.526,2.659 -8.819,5.184 -12.855,7.552 -4.011,2.448 -7.861,4.418 -11.254,6.812 -3.384,2.344 -6.494,4.495 -9.299,6.438 -3.902,2.715 -7.216,5.016 -9.869,6.863 -4.162,2.895 -3.7,3.752 1.025,1.919 2.98,-1.157 6.689,-2.595 11.056,-4.287 3.081,-1.193 6.493,-2.513 10.208,-3.95 3.669,-1.466 8.011,-2.521 12.445,-3.941 4.48,-1.355 9.248,-2.794 14.272,-4.314 2.512,-0.759 5.089,-1.54 7.729,-2.335 2.549,-0.579 5.156,-1.169 7.818,-1.775 5.483,-1.249 11.197,-2.549 17.112,-3.896 5.964,-1 12.126,-2.032 18.464,-3.094 6.264,-1.214 12.852,-1.741 19.492,-2.487 3.314,-0.358 6.665,-0.719 10.046,-1.083 3.369,-0.386 6.836,-0.395 10.282,-0.612 3.442,-0.168 6.916,-0.34 10.413,-0.511 3.482,-0.202 6.986,-0.364 10.539,-0.251 7.087,0.101 14.202,0.062 21.35,0.27 7.127,0.483 14.309,0.973 21.521,1.462 7.173,0.71 14.333,1.778 21.441,2.629 3.559,0.364 7.096,1.031 10.615,1.723 l 10.517,1.977 c 6.995,1.117 13.84,3.048 20.612,4.707 3.372,0.841 6.732,1.677 10.077,2.512 3.289,1.037 6.563,2.071 9.816,3.1 6.472,2.115 12.897,3.822 18.996,6.369 6.13,2.393 12.161,4.559 17.953,6.945 5.701,2.589 11.279,5.119 16.708,7.586 1.347,0.609 2.687,1.215 4.015,1.818 1.294,0.688 2.582,1.373 3.858,2.053 2.543,1.35 5.046,2.678 7.51,3.984 4.893,2.652 9.7,4.924 14.029,7.764 2.678,1.66 5.318,3.256 7.868,4.803 4.332,2.633 5.597,8.305 2.876,12.584 l -39.244,61.689 c -2.721,4.277 -0.848,7.258 4.188,6.658 l 205.993,-24.551 c 5.039,-0.587 7.829,-4.977 6.242,-9.792 z"
   id="path1-3"
   style="fill:#dc2626;fill-opacity:1" />
	</g>
</g></g><text
     xml:space="preserve"
     style="font-weight:bold;font-size:0.48px;font-family:Ubuntu;-inkscape-font-specification:'Ubuntu Bold';text-align:end;white-space:pre;shape-inside:url(#rect3);display:inline;fill:#687a8c;fill-opacity:1;stroke:none;stroke-width:0.0187087"
     x="13.205415"
     y="2.6735852"
     id="text3"><tspan
       x="3.7120876"
       y="2.6018931"
       id="tspan2"><tspan
         style="text-align:center;text-anchor:middle"
         id="tspan1">Cliquer sur l'icone en bas à droite </tspan></tspan><tspan
       x="4.6680048"
       y="3.201893"
       id="tspan5"><tspan
         style="text-align:center;text-anchor:middle"
         id="tspan4">pour importer une image</tspan></tspan></text><rect
     style="fill:none;stroke:none;stroke-width:0.0160734"
     id="rect3"
     width="8.2563848"
     height="1.3394278"
     x="3.3718076"
     y="2.1544237" /></svg>
